<svg width="121" height="23" viewBox="0 0 121 23" fill="none" xmlns="http://www.w3.org/2000/svg">
<path d="M0.184 18V1.2H3.76V18H0.184ZM7.38588 18V5.28H10.2659V7.152C10.5859 6.576 11.0819 6.072 11.7539 5.64C12.4259 5.208 13.3459 4.992 14.5139 4.992C16.0659 4.992 17.2179 5.408 17.9699 6.24C18.7379 7.072 19.1219 8.272 19.1219 9.84V18H15.9539V10.56C15.9539 9.616 15.7539 8.904 15.3539 8.424C14.9699 7.928 14.3059 7.68 13.3619 7.68C12.6899 7.68 12.1459 7.816 11.7299 8.088C11.3139 8.36 11.0099 8.712 10.8179 9.144C10.6259 9.576 10.5299 10.048 10.5299 10.56V18H7.38588ZM21.1731 12.768V9.792H28.8531V12.768H21.1731ZM31.5143 18V1.2H38.3063C39.7143 1.2 40.8823 1.424 41.8103 1.872C42.7543 2.32 43.4663 2.952 43.9463 3.768C44.4263 4.568 44.6663 5.512 44.6663 6.6C44.6663 7.752 44.3703 8.76 43.7783 9.624C43.1863 10.472 42.2823 11.088 41.0663 11.472L45.1463 18H40.9943L37.4663 11.856H35.0903V18H31.5143ZM35.0903 9.024H37.6103C38.9383 9.024 39.8503 8.824 40.3463 8.424C40.8423 8.008 41.0903 7.4 41.0903 6.6C41.0903 5.8 40.8423 5.2 40.3463 4.8C39.8503 4.384 38.9383 4.176 37.6103 4.176H35.0903V9.024ZM52.9891 18.288C51.8371 18.288 50.7731 18.056 49.7971 17.592C48.8371 17.112 48.0691 16.392 47.4931 15.432C46.9171 14.456 46.6291 13.232 46.6291 11.76V11.28C46.6291 9.872 46.9011 8.704 47.4451 7.776C48.0051 6.848 48.7491 6.152 49.6771 5.688C50.6051 5.224 51.6291 4.992 52.7491 4.992C54.7491 4.992 56.2691 5.52 57.3091 6.576C58.3491 7.632 58.8691 9.16 58.8691 11.16V12.504H49.8691C49.9011 13.256 50.0611 13.872 50.3491 14.352C50.6531 14.816 51.0371 15.16 51.5011 15.384C51.9651 15.592 52.4611 15.696 52.9891 15.696C53.8051 15.696 54.4211 15.576 54.8371 15.336C55.2531 15.096 55.5491 14.744 55.7251 14.28H58.6291C58.3731 15.608 57.7411 16.608 56.7331 17.28C55.7251 17.952 54.4771 18.288 52.9891 18.288ZM52.8691 7.584C52.3731 7.584 51.8931 7.664 51.4291 7.824C50.9651 7.984 50.5971 8.272 50.3251 8.688C50.0531 9.088 49.9011 9.624 49.8691 10.296H55.7971C55.7811 9.576 55.6371 9.024 55.3651 8.64C55.1091 8.24 54.7651 7.968 54.3331 7.824C53.9011 7.664 53.4131 7.584 52.8691 7.584ZM66.7909 18.288C65.6229 18.288 64.5669 18.048 63.6229 17.568C62.6789 17.072 61.9269 16.344 61.3669 15.384C60.8229 14.408 60.5509 13.2 60.5509 11.76V11.28C60.5509 9.904 60.8389 8.752 61.4149 7.824C61.9909 6.896 62.7509 6.192 63.6949 5.712C64.6389 5.232 65.6709 4.992 66.7909 4.992C67.9909 4.992 69.0069 5.192 69.8389 5.592C70.6709 5.992 71.3109 6.544 71.7589 7.248C72.2229 7.952 72.4869 8.728 72.5509 9.576H69.3349C69.2069 9 68.9429 8.544 68.5429 8.208C68.1589 7.856 67.5749 7.68 66.7909 7.68C66.2469 7.68 65.7429 7.808 65.2789 8.064C64.8309 8.32 64.4629 8.712 64.1749 9.24C63.9029 9.768 63.7669 10.448 63.7669 11.28V11.76C63.7669 12.656 63.8949 13.392 64.1509 13.968C64.4229 14.528 64.7829 14.944 65.2309 15.216C65.6949 15.472 66.2149 15.6 66.7909 15.6C67.4149 15.6 67.9509 15.44 68.3989 15.12C68.8629 14.784 69.1749 14.312 69.3349 13.704H72.5509C72.4549 14.616 72.1509 15.424 71.6389 16.128C71.1269 16.832 70.4469 17.368 69.5989 17.736C68.7669 18.104 67.8309 18.288 66.7909 18.288ZM74.9618 18V5.28H78.1058V18H74.9618ZM76.5218 4.056C75.9618 4.056 75.4978 3.88 75.1298 3.528C74.7778 3.176 74.6018 2.72 74.6018 2.16C74.6018 1.6 74.7778 1.144 75.1298 0.792C75.4978 0.44 75.9538 0.263999 76.4978 0.263999C77.0738 0.263999 77.5378 0.44 77.8898 0.792C78.2578 1.144 78.4418 1.6 78.4418 2.16C78.4418 2.72 78.2578 3.176 77.8898 3.528C77.5378 3.88 77.0818 4.056 76.5218 4.056ZM81.2374 22.8V5.28H84.1654V7.152C84.4854 6.576 84.9894 6.072 85.6774 5.64C86.3654 5.208 87.2374 4.992 88.2934 4.992C89.9894 4.992 91.3094 5.52 92.2534 6.576C93.2134 7.616 93.6934 9.184 93.6934 11.28V11.76C93.6934 13.216 93.4694 14.432 93.0214 15.408C92.5894 16.368 91.9734 17.088 91.1734 17.568C90.3734 18.048 89.4134 18.288 88.2934 18.288C87.4294 18.288 86.6614 18.104 85.9894 17.736C85.3334 17.352 84.7974 16.856 84.3814 16.248V22.8H81.2374ZM87.5494 15.6C88.3814 15.6 89.0774 15.288 89.6374 14.664C90.1974 14.024 90.4774 13.056 90.4774 11.76V11.28C90.4774 10.08 90.2054 9.184 89.6614 8.592C89.1334 7.984 88.4294 7.68 87.5494 7.68C86.9574 7.68 86.4134 7.8 85.9174 8.04C85.4374 8.264 85.0614 8.608 84.7894 9.072C84.5174 9.52 84.3814 10.096 84.3814 10.8V12.24C84.3814 12.992 84.5094 13.624 84.7654 14.136C85.0374 14.632 85.4134 15 85.8934 15.24C86.3734 15.48 86.9254 15.6 87.5494 15.6ZM101.739 18.288C100.587 18.288 99.5231 18.056 98.5471 17.592C97.5871 17.112 96.8191 16.392 96.2431 15.432C95.6671 14.456 95.3791 13.232 95.3791 11.76V11.28C95.3791 9.872 95.6511 8.704 96.1951 7.776C96.7551 6.848 97.4991 6.152 98.4271 5.688C99.3551 5.224 100.379 4.992 101.499 4.992C103.499 4.992 105.019 5.52 106.059 6.576C107.099 7.632 107.619 9.16 107.619 11.16V12.504H98.6191C98.6511 13.256 98.8111 13.872 99.0991 14.352C99.4031 14.816 99.7871 15.16 100.251 15.384C100.715 15.592 101.211 15.696 101.739 15.696C102.555 15.696 103.171 15.576 103.587 15.336C104.003 15.096 104.299 14.744 104.475 14.28H107.379C107.123 15.608 106.491 16.608 105.483 17.28C104.475 17.952 103.227 18.288 101.739 18.288ZM101.619 7.584C101.123 7.584 100.643 7.664 100.179 7.824C99.7151 7.984 99.3471 8.272 99.0751 8.688C98.8031 9.088 98.6511 9.624 98.6191 10.296H104.547C104.531 9.576 104.387 9.024 104.115 8.64C103.859 8.24 103.515 7.968 103.083 7.824C102.651 7.664 102.163 7.584 101.619 7.584ZM115.061 18.288C114.021 18.288 113.149 18.184 112.445 17.976C111.741 17.752 111.157 17.456 110.693 17.088C110.245 16.704 109.909 16.272 109.685 15.792C109.477 15.312 109.349 14.808 109.301 14.28H112.469C112.549 14.696 112.797 15.04 113.213 15.312C113.629 15.568 114.245 15.696 115.061 15.696C115.989 15.696 116.653 15.568 117.053 15.312C117.453 15.056 117.653 14.728 117.653 14.328C117.653 14.04 117.565 13.808 117.389 13.632C117.213 13.44 116.901 13.28 116.453 13.152C116.005 13.008 115.373 12.864 114.557 12.72C113.853 12.624 113.205 12.496 112.613 12.336C112.021 12.16 111.501 11.92 111.053 11.616C110.621 11.312 110.277 10.936 110.021 10.488C109.781 10.024 109.661 9.464 109.661 8.808C109.661 8.104 109.869 7.464 110.285 6.888C110.717 6.312 111.333 5.856 112.133 5.52C112.949 5.168 113.925 4.992 115.061 4.992C116.293 4.992 117.277 5.184 118.013 5.568C118.749 5.952 119.301 6.448 119.669 7.056C120.037 7.664 120.261 8.312 120.341 9H117.173C117.045 8.536 116.797 8.184 116.429 7.944C116.061 7.704 115.605 7.584 115.061 7.584C114.261 7.584 113.685 7.712 113.333 7.968C112.997 8.208 112.829 8.512 112.829 8.88C112.829 9.264 113.013 9.56 113.381 9.768C113.765 9.976 114.541 10.16 115.709 10.32C116.429 10.416 117.093 10.56 117.701 10.752C118.325 10.928 118.869 11.168 119.333 11.472C119.797 11.776 120.157 12.16 120.413 12.624C120.685 13.072 120.821 13.624 120.821 14.28C120.821 15.064 120.605 15.76 120.173 16.368C119.757 16.96 119.117 17.432 118.253 17.784C117.405 18.12 116.341 18.288 115.061 18.288Z" fill="#DE0051"/>
</svg>
