<svg width="105" height="22" viewBox="0 0 105 22" fill="none" xmlns="http://www.w3.org/2000/svg">
<path d="M3.69 4.292V17H1.152V4.292H3.69ZM17.75 17H15.212L9.52398 8.36V17H6.98598V4.292H9.52398L15.212 13.004V4.292H17.75V17ZM27.5085 9.53V11.636H19.8585V9.53H27.5085ZM39.3524 4.292V6.308H34.0064V9.71H38.2904V11.654H34.0064V17H31.4684V4.292H39.3524ZM44.6041 4.292V17H42.0661V4.292H44.6041ZM56.54 4.292V6.308H53.03V17H50.492V6.308H47V4.292H56.54ZM69.7012 17H67.1632L61.4752 8.36V17H58.9372V4.292H61.4752L67.1632 13.004V4.292H69.7012V17ZM75.5357 6.308V9.602H80.0357V11.546H75.5357V14.966H80.5757V17H72.9977V4.292H80.5757V6.308H75.5357ZM92.1847 13.526C92.1847 14.174 92.0227 14.774 91.6987 15.326C91.3747 15.866 90.8947 16.304 90.2587 16.64C89.6227 16.964 88.8487 17.126 87.9367 17.126C87.0367 17.126 86.2327 16.976 85.5247 16.676C84.8167 16.364 84.2467 15.92 83.8147 15.344C83.3947 14.768 83.1547 14.096 83.0947 13.328H85.7947C85.8547 13.844 86.0587 14.276 86.4067 14.624C86.7667 14.96 87.2407 15.128 87.8287 15.128C88.3567 15.128 88.7587 14.99 89.0347 14.714C89.3227 14.426 89.4667 14.06 89.4667 13.616C89.4667 13.22 89.3527 12.896 89.1247 12.644C88.8967 12.38 88.6087 12.17 88.2607 12.014C87.9127 11.858 87.4327 11.678 86.8207 11.474C86.0287 11.21 85.3807 10.952 84.8767 10.7C84.3727 10.436 83.9407 10.058 83.5807 9.566C83.2327 9.074 83.0587 8.432 83.0587 7.64C83.0587 6.548 83.4487 5.69 84.2287 5.066C85.0207 4.43 86.0647 4.112 87.3607 4.112C88.7047 4.112 89.7727 4.436 90.5647 5.084C91.3687 5.732 91.8247 6.596 91.9327 7.676H89.1967C89.1247 7.22 88.9327 6.848 88.6207 6.56C88.3087 6.26 87.8827 6.11 87.3427 6.11C86.8747 6.11 86.4967 6.236 86.2087 6.488C85.9207 6.728 85.7767 7.082 85.7767 7.55C85.7767 7.922 85.8847 8.234 86.1007 8.486C86.3287 8.726 86.6107 8.924 86.9467 9.08C87.2947 9.236 87.7627 9.41 88.3507 9.602C89.1667 9.89 89.8267 10.16 90.3307 10.412C90.8467 10.664 91.2847 11.042 91.6447 11.546C92.0047 12.05 92.1847 12.71 92.1847 13.526ZM103.784 13.526C103.784 14.174 103.622 14.774 103.298 15.326C102.974 15.866 102.494 16.304 101.858 16.64C101.222 16.964 100.448 17.126 99.5363 17.126C98.6363 17.126 97.8323 16.976 97.1243 16.676C96.4163 16.364 95.8463 15.92 95.4143 15.344C94.9943 14.768 94.7543 14.096 94.6943 13.328H97.3943C97.4543 13.844 97.6583 14.276 98.0063 14.624C98.3663 14.96 98.8403 15.128 99.4283 15.128C99.9563 15.128 100.358 14.99 100.634 14.714C100.922 14.426 101.066 14.06 101.066 13.616C101.066 13.22 100.952 12.896 100.724 12.644C100.496 12.38 100.208 12.17 99.8603 12.014C99.5123 11.858 99.0323 11.678 98.4203 11.474C97.6283 11.21 96.9803 10.952 96.4763 10.7C95.9723 10.436 95.5403 10.058 95.1803 9.566C94.8323 9.074 94.6583 8.432 94.6583 7.64C94.6583 6.548 95.0483 5.69 95.8283 5.066C96.6203 4.43 97.6643 4.112 98.9603 4.112C100.304 4.112 101.372 4.436 102.164 5.084C102.968 5.732 103.424 6.596 103.532 7.676H100.796C100.724 7.22 100.532 6.848 100.22 6.56C99.9083 6.26 99.4823 6.11 98.9423 6.11C98.4743 6.11 98.0963 6.236 97.8083 6.488C97.5203 6.728 97.3763 7.082 97.3763 7.55C97.3763 7.922 97.4843 8.234 97.7003 8.486C97.9283 8.726 98.2103 8.924 98.5463 9.08C98.8943 9.236 99.3623 9.41 99.9503 9.602C100.766 9.89 101.426 10.16 101.93 10.412C102.446 10.664 102.884 11.042 103.244 11.546C103.604 12.05 103.784 12.71 103.784 13.526Z" fill="white"/>
</svg>
