<svg width="46" height="39" viewBox="0 0 46 39" fill="none" xmlns="http://www.w3.org/2000/svg">
<path d="M0.380859 28.1055C0.732422 27.8477 1.07227 27.543 1.40039 27.1914C1.72852 26.8398 2.0332 26.4062 2.31445 25.8906C2.5957 25.3516 2.83008 24.6953 3.01758 23.9219C3.22852 23.1484 3.36914 22.2109 3.43945 21.1094C3.50977 20.0078 3.56836 18.7773 3.61523 17.418C3.66211 16.0352 3.68555 14.6289 3.68555 13.1992C3.70898 11.7695 3.69727 10.3867 3.65039 9.05078C3.60352 7.69141 3.52148 6.49609 3.4043 5.46484C3.31055 4.73828 3.14648 4.16406 2.91211 3.74219C2.67773 3.32031 2.41992 2.99219 2.13867 2.75781C1.85742 2.5 1.56445 2.3125 1.25977 2.19531C0.955078 2.05469 0.697266 1.91406 0.486328 1.77344L0.732422 0.964844C1.22461 1.15234 1.81055 1.29297 2.49023 1.38672C3.19336 1.48047 3.91992 1.53906 4.66992 1.5625C5.44336 1.58594 6.22852 1.5625 7.02539 1.49219C7.82227 1.42188 8.58398 1.30469 9.31055 1.14062L9.52148 1.87891C9.05273 2.01953 8.61914 2.32422 8.2207 2.79297C7.8457 3.23828 7.58789 4.02344 7.44727 5.14844C7.40039 5.5 7.3418 5.98047 7.27148 6.58984C7.20117 7.17578 7.13086 7.85547 7.06055 8.62891C6.99023 9.37891 6.91992 10.2109 6.84961 11.125C6.7793 12.0156 6.70898 12.9297 6.63867 13.8672C7.59961 13.7969 8.57227 13.5273 9.55664 13.0586C10.541 12.5664 11.4434 11.9219 12.2637 11.125C13.1074 10.3047 13.8223 9.33203 14.4082 8.20703C15.0176 7.08203 15.4277 5.83984 15.6387 4.48047C15.709 3.91797 15.709 3.48437 15.6387 3.17969C15.5918 2.85156 15.498 2.60547 15.3574 2.44141C15.2402 2.27734 15.0996 2.18359 14.9355 2.16016C14.7949 2.11328 14.666 2.08984 14.5488 2.08984L14.6191 1.31641C14.9004 1.36328 15.3691 1.41016 16.0254 1.45703C16.7051 1.50391 17.4785 1.53906 18.3457 1.5625C19.2129 1.5625 20.1387 1.53906 21.123 1.49219C22.1074 1.42188 23.0684 1.29297 24.0059 1.10547L24.041 1.80859C23.5488 1.94922 23.0801 2.08984 22.6348 2.23047C22.1895 2.37109 21.7676 2.55859 21.3691 2.79297C20.9707 3.02734 20.584 3.33203 20.209 3.70703C19.8574 4.08203 19.5176 4.57422 19.1895 5.18359C18.7676 5.93359 18.2754 6.77734 17.7129 7.71484C17.1738 8.62891 16.541 9.53125 15.8145 10.4219C15.1113 11.3125 14.3262 12.1328 13.459 12.8828C12.5918 13.6094 11.6309 14.1602 10.5762 14.5352C11.2793 14.8398 12.0293 15.25 12.8262 15.7656C13.6465 16.2578 14.3965 16.8789 15.0762 17.6289C15.7793 18.3789 16.3535 19.2695 16.7988 20.3008C17.2676 21.3086 17.502 22.4688 17.502 23.7812C17.502 24.7656 17.4785 25.7852 17.4316 26.8398C17.4082 27.8711 17.4199 28.8789 17.4668 29.8633C17.5371 30.8477 17.6543 31.7734 17.8184 32.6406C18.0059 33.5312 18.2988 34.293 18.6973 34.9258C19.0957 35.582 19.6348 36.0977 20.3145 36.4727C21.0176 36.8711 21.8965 37.0703 22.9512 37.0703C23.4434 37.0703 23.9004 36.9531 24.3223 36.7188C24.7441 36.5078 25.1074 36.2148 25.4121 35.8398C25.7402 35.4883 25.998 35.0898 26.1855 34.6445C26.373 34.2227 26.4668 33.8008 26.4668 33.3789C26.4668 32.957 26.3965 32.5586 26.2559 32.1836C26.1152 31.8086 25.9277 31.4805 25.6934 31.1992C25.459 30.9414 25.1895 30.7305 24.8848 30.5664C24.6035 30.4258 24.3105 30.3555 24.0059 30.3555C23.3965 30.3555 22.8457 30.5781 22.3535 31.0234C21.8848 31.4688 21.6504 31.9609 21.6504 32.5C21.6504 33.0625 21.7676 33.5078 22.002 33.8359C22.2363 34.1875 22.5996 34.3633 23.0918 34.3633C23.4902 34.3633 23.8184 34.2109 24.0762 33.9062C24.3574 33.625 24.5215 33.2852 24.5684 32.8867C24.3574 33.2148 24.0762 33.3789 23.7246 33.3789C23.4199 33.3555 23.1621 33.2383 22.9512 33.0273C22.7402 32.8398 22.6582 32.6289 22.7051 32.3945C22.752 32.1367 22.8926 31.9141 23.127 31.7266C23.3613 31.5625 23.6777 31.5156 24.0762 31.5859C24.498 31.6562 24.8145 31.8555 25.0254 32.1836C25.2363 32.5352 25.2949 32.9336 25.2012 33.3789C25.1543 33.5898 25.0723 33.8125 24.9551 34.0469C24.8613 34.2812 24.709 34.4805 24.498 34.6445C24.3105 34.832 24.0645 34.9727 23.7598 35.0664C23.4551 35.1836 23.0918 35.2188 22.6699 35.1719C22.1543 35.125 21.7441 34.9492 21.4395 34.6445C21.1348 34.3633 20.9238 34.0117 20.8066 33.5898C20.7129 33.168 20.7129 32.7109 20.8066 32.2188C20.9004 31.75 21.0879 31.3047 21.3691 30.8828C21.6738 30.4844 22.0605 30.1562 22.5293 29.8984C22.998 29.6406 23.5488 29.5234 24.1816 29.5469C24.5566 29.5469 24.9199 29.6523 25.2715 29.8633C25.6465 30.0977 25.9746 30.3906 26.2559 30.7422C26.5605 31.0938 26.7949 31.5039 26.959 31.9727C27.123 32.4648 27.2051 32.9805 27.2051 33.5195C27.2051 34.0117 27.1113 34.5508 26.9238 35.1367C26.7598 35.7227 26.4551 36.2617 26.0098 36.7539C25.5879 37.2695 25.0137 37.6914 24.2871 38.0195C23.5605 38.3711 22.6582 38.5352 21.5801 38.5117C20.7363 38.5117 19.8809 38.2656 19.0137 37.7734C18.1465 37.3047 17.3613 36.6133 16.6582 35.6992C15.9785 34.8086 15.4277 33.6953 15.0059 32.3594C14.584 31.0469 14.3965 29.5234 14.4434 27.7891C14.4668 26.7344 14.4785 25.6445 14.4785 24.5195C14.4785 23.3711 14.3496 22.3281 14.0918 21.3906C13.7637 20.4062 13.3184 19.457 12.7559 18.543C12.2168 17.6055 11.4785 16.8672 10.541 16.3281C10.002 16 9.39258 15.8125 8.71289 15.7656C8.05664 15.6953 7.3418 15.6836 6.56836 15.7305C6.49805 17.3477 6.46289 18.8594 6.46289 20.2656C6.46289 21.6484 6.46289 22.7148 6.46289 23.4648C6.46289 24.2617 6.55664 24.8945 6.74414 25.3633C6.93164 25.8086 7.16602 26.1719 7.44727 26.4531C7.75195 26.7344 8.08008 26.957 8.43164 27.1211C8.7832 27.2617 9.12305 27.4258 9.45117 27.6133L9.16992 28.2109C8.74805 28.1406 8.15039 28.1055 7.37695 28.1055C6.62695 28.1055 5.81836 28.1289 4.95117 28.1758C4.10742 28.2461 3.27539 28.3281 2.45508 28.4219C1.63477 28.5391 0.978516 28.6797 0.486328 28.8438L0.380859 28.1055ZM24.709 19.8789C23.6777 19.9727 22.6699 19.9609 21.6855 19.8438C20.7246 19.7031 19.8691 19.4453 19.1191 19.0703C18.3457 18.6719 17.7246 18.1445 17.2559 17.4883C16.7637 16.8086 16.4824 15.9766 16.4121 14.9922C16.3418 14.0781 16.4941 13.3047 16.8691 12.6719C17.2207 12.0391 17.6777 11.5586 18.2402 11.2305C18.8027 10.9023 19.4355 10.7148 20.1387 10.668C20.8184 10.5977 21.4512 10.6797 22.0371 10.9141C22.6465 11.125 23.1621 11.4883 23.584 12.0039C24.0059 12.4961 24.2402 13.1172 24.2871 13.8672C24.3574 14.9453 24.1348 15.7188 23.6191 16.1875C23.1035 16.6562 22.4824 16.9023 21.7559 16.9258C21.0293 16.9492 20.4082 16.7969 19.8926 16.4688C19.3535 16.1406 19.0605 15.6016 19.0137 14.8516C18.9902 14.4766 19.0371 14.1602 19.1543 13.9023C19.248 13.6211 19.377 13.3984 19.541 13.2344C19.6816 13.0469 19.8574 12.918 20.0684 12.8477C20.2793 12.7539 20.4785 12.707 20.666 12.707C21.0645 12.6836 21.3809 12.7773 21.6152 12.9883C21.873 13.1758 22.0254 13.4688 22.0723 13.8672C22.0957 14.2422 21.9902 14.5117 21.7559 14.6758C21.5215 14.8164 21.252 14.8281 20.9473 14.7109C20.7363 14.6406 20.6191 14.4766 20.5957 14.2188C20.5488 13.9609 20.584 13.7266 20.7012 13.5156C20.4902 13.5625 20.3145 13.668 20.1738 13.832C20.0332 13.9961 19.9629 14.2422 19.9629 14.5703C19.9629 14.9922 20.0801 15.3555 20.3145 15.6602C20.5488 15.9414 20.9941 16.0586 21.6504 16.0117C21.9785 16.0117 22.2363 15.9297 22.4238 15.7656C22.6348 15.6016 22.7988 15.4141 22.916 15.2031C23.0332 14.9922 23.1035 14.7812 23.127 14.5703C23.1738 14.3359 23.1973 14.1484 23.1973 14.0078C23.1973 13.8672 23.1621 13.6562 23.0918 13.375C23.0449 13.0938 22.916 12.8242 22.7051 12.5664C22.5176 12.2852 22.2363 12.0391 21.8613 11.8281C21.5098 11.6172 21.0293 11.4883 20.4199 11.4414C19.7871 11.418 19.2715 11.5234 18.873 11.7578C18.4746 11.9688 18.1582 12.25 17.9238 12.6016C17.6895 12.9531 17.5254 13.3281 17.4316 13.7266C17.3379 14.125 17.3027 14.4766 17.3262 14.7812C17.3496 15.3906 17.5371 15.9414 17.8887 16.4336C18.2168 16.9258 18.7207 17.3359 19.4004 17.6641C20.0566 17.9688 20.877 18.1797 21.8613 18.2969C22.8691 18.4141 24.0293 18.3906 25.3418 18.2266C25.6934 17.3359 26.0332 16.4102 26.3613 15.4492C26.6895 14.4883 26.9941 13.5391 27.2754 12.6016C27.5566 11.6641 27.8027 10.75 28.0137 9.85938C28.2246 8.96875 28.377 8.14844 28.4707 7.39844C28.6816 5.61719 28.5059 4.22266 27.9434 3.21484C27.3809 2.18359 26.5488 1.64453 25.4473 1.59766L25.5879 0.683594C26.0098 0.753906 26.6074 0.835938 27.3809 0.929688C28.1777 1.02344 29.0449 1.10547 29.9824 1.17578C30.9199 1.22266 31.8574 1.24609 32.7949 1.24609C33.7324 1.22266 34.5762 1.12891 35.3262 0.964844L35.3613 1.52734C35.0566 1.62109 34.7754 1.71484 34.5176 1.80859C34.2598 1.90234 34.0488 2.03125 33.8848 2.19531C33.7207 2.33594 33.6035 2.53516 33.5332 2.79297C33.4629 3.02734 33.4746 3.33203 33.5684 3.70703C33.6621 4.10547 33.8145 4.86719 34.0254 5.99219C34.2363 7.11719 34.4941 8.44141 34.7988 9.96484C35.1035 11.4883 35.4551 13.1289 35.8535 14.8867C36.252 16.6445 36.6855 18.332 37.1543 19.9492C37.623 21.5664 38.0918 22.9961 38.5605 24.2383C39.0527 25.4805 39.5449 26.5 40.0371 27.2969C40.5293 28.0703 41.0332 28.5977 41.5488 28.8789C42.0645 29.1836 42.6035 29.207 43.166 28.9492C43.4473 28.7852 43.6934 28.5625 43.9043 28.2812C44.0918 28.0234 44.2559 27.6953 44.3965 27.2969C44.5371 26.8984 44.6191 26.3945 44.6426 25.7852L45.1699 25.6797C45.2637 26.0547 45.2871 26.5352 45.2402 27.1211C45.1934 27.6836 45.0645 28.2461 44.8535 28.8086C44.6426 29.3711 44.3262 29.8633 43.9043 30.2852C43.4824 30.7305 42.9434 30.9883 42.2871 31.0586C41.748 31.1289 41.1387 31.1055 40.459 30.9883C39.8027 30.8711 39.1348 30.5312 38.4551 29.9688C37.7988 29.4062 37.1543 28.5391 36.5215 27.3672C35.9121 26.1953 35.3848 24.5898 34.9395 22.5508C34.8223 21.9648 34.7051 21.3906 34.5879 20.8281C34.4707 20.2422 34.3535 19.6797 34.2363 19.1406C33.5566 19.1875 32.6309 19.2461 31.459 19.3164C30.2871 19.3867 29.0684 19.4688 27.8027 19.5625C27.4512 21.0391 27.1816 22.3516 26.9941 23.5C26.877 24.2031 26.8184 24.7773 26.8184 25.2227C26.8418 25.668 26.9121 26.0312 27.0293 26.3125C27.1465 26.5703 27.334 26.7812 27.5918 26.9453C27.873 27.1094 28.2246 27.2617 28.6465 27.4023L28.6113 28.1406C28.2129 28.0469 27.6035 27.9883 26.7832 27.9648C25.9629 27.9414 25.084 27.9531 24.1465 28C23.2324 28.0703 22.3184 28.1758 21.4043 28.3164C20.5137 28.4805 19.8105 28.7031 19.2949 28.9844L19.0137 27.7891C19.5059 27.5781 19.9277 27.4375 20.2793 27.3672C20.6074 27.2734 20.9004 27.1562 21.1582 27.0156C21.416 26.8516 21.6621 26.6172 21.8965 26.3125C22.1309 25.9844 22.377 25.5039 22.6348 24.8711C22.8457 24.4023 23.127 23.7344 23.4785 22.8672C23.8535 22 24.2754 21.0039 24.7441 19.8789H24.709ZM31.5996 5.11328C31.4121 5.86328 31.1777 6.73047 30.8965 7.71484C30.6152 8.69922 30.3223 9.75391 30.0176 10.8789C29.7129 11.9805 29.3965 13.1289 29.0684 14.3242C28.7637 15.5195 28.4707 16.6914 28.1895 17.8398C29.291 17.6758 30.3223 17.5469 31.2832 17.4531C32.2676 17.3594 33.123 17.2891 33.8496 17.2422C33.3105 14.7109 32.8418 12.4375 32.4434 10.4219C32.0449 8.40625 31.7637 6.63672 31.5996 5.11328Z" fill="white"/>
</svg>
